<svg class="icon" viewBox="0 0 1024 1024" xmlns="http://www.w3.org/2000/svg" width="200" height="200"><defs><style/></defs><path d="M512 929.98C281.53 929.98 94.02 742.47 94.02 512S281.53 94.02 512 94.02 929.98 281.53 929.98 512 742.47 929.98 512 929.98zm0-773.8c-196.2 0-355.82 159.62-355.82 355.82S315.8 867.82 512 867.82 867.82 708.2 867.82 512 708.2 156.18 512 156.18z"/><path d="M662.7 512c0 17.17-13.92 31.08-31.08 31.08h-88.54v88.54c0 17.17-13.92 31.08-31.08 31.08-17.17 0-31.08-13.92-31.08-31.08v-88.54h-88.54c-17.16 0-31.08-13.92-31.08-31.08 0-17.17 13.92-31.08 31.08-31.08h88.54v-88.54c0-17.17 13.92-31.08 31.08-31.08 17.16 0 31.08 13.92 31.08 31.08v88.54h88.54c17.16 0 31.08 13.91 31.08 31.08z"/></svg>