<svg class="icon" viewBox="0 0 1025 1024" xmlns="http://www.w3.org/2000/svg" width="200.195" height="200"><defs><style/></defs><path d="M719.199 230.12q-8.99 0-15.733-6.742t-11.238-15.733-6.743-18.43-2.248-15.734V62.9h1.798q7.193 0 14.835 1.798t17.98 8.541 25.174 18.88 37.31 31.916q24.274 21.577 38.209 36.411t21.577 25.173 9.44 17.531 1.798 12.587v14.385H719.199zM511.52 737.18q0 51.245 20.678 95.298t56.64 75.52H292.154q-17.081 0-37.31-9.89t-37.76-26.072-29.218-37.31-11.688-43.604V178.875q0-18.88 8.99-39.557t23.825-37.31 33.714-27.87 39.558-11.239h343.434v112.38q0 17.082 5.394 36.86t17.082 36.412 29.668 27.87 42.255 11.238h131.26v249.934q-24.274-14.385-52.594-22.027t-58.887-7.642q-64.731 0-117.325 31.916T540.29 624.8H345.198q-23.375 0-40.007 16.632t-16.633 40.007 16.633 39.558 40.007 16.183H511.52zM345.198 400.04q-23.375 0-40.007 16.182t-16.633 39.558 16.633 40.007 40.007 16.633h337.14q23.375 0 40.008-16.633t16.632-40.007-16.632-39.558-40.008-16.183h-337.14zm603.256 503.462q12.587 15.284 13.936 25.623t-8.541 21.127q-10.789 12.587-23.375 11.688T905.3 951.152l-76.418-73.722q-24.274 15.284-52.594 22.027t-56.19 4.495-54.392-13.935-48.099-34.164q-24.274-24.274-36.86-55.74T568.16 736.28t12.587-63.383 36.86-56.19q24.274-24.274 54.842-36.86t62.933-12.587 63.382 12.587 55.291 36.86q21.577 22.476 33.265 49.448t13.935 55.29-4.495 56.19-22.027 52.145zm-212.173-55.74q22.476 0 42.255-8.99t34.613-23.825 23.375-35.063 8.54-43.603q0-22.476-8.54-42.705t-23.375-35.512-34.613-23.824-42.255-8.541q-23.375 0-43.154 8.54t-34.613 23.825-23.375 35.512-8.541 42.705q0 23.375 8.54 43.603t23.376 35.063 34.613 23.824 43.154 8.99z"/></svg>